<?xml version="1.0" encoding="UTF-8"?>
<!DOCTYPE svg PUBLIC "-//W3C//DTD SVG 1.1//EN" "http://www.w3.org/Graphics/SVG/1.1/DTD/svg11.dtd">
<!-- Creator: CorelDRAW 2026 -->
<svg xmlns="http://www.w3.org/2000/svg" xml:space="preserve" width="393.967mm" height="103.968mm" version="1.1" style="shape-rendering:geometricPrecision; text-rendering:geometricPrecision; image-rendering:optimizeQuality; fill-rule:evenodd; clip-rule:evenodd"
viewBox="0 0 17924.92 4730.4"
 xmlns:xlink="http://www.w3.org/1999/xlink"
 xmlns:xodm="http://www.corel.com/coreldraw/odm/2003">
 <defs>
  <style type="text/css">
   <![CDATA[
    .fil0 {fill:#373435}
   ]]>
  </style>
 </defs>
 <g id="Camada_x0020_1">
  <metadata id="CorelCorpID_0Corel-Layer"/>
  <path class="fil0" d="M15153.54 1571.54c138.56,2.53 277.12,5.05 415.67,7.58 60.43,-0.9 100.15,-42.05 112.45,-136.45 19.37,-114.13 32.85,-228.3 52.22,-342.44 -125.08,-0.84 -244.27,-1.64 -369.35,-2.48 -92.78,-1.97 -143.36,41.56 -159.19,122.55 -17.27,117.08 -34.53,234.16 -51.8,351.24zm-12220.7 -773.16c61.1,3.94 122.21,7.88 183.32,11.83 65.87,-415.06 297.53,-609.1 623.33,-601.23 410.11,36.04 507.66,301.1 488.6,654.01 61.41,3.09 122.82,6.19 184.24,9.28 62.96,-533.18 -262.94,-864.33 -671.27,-872.27 -508.76,14.67 -751.35,356.16 -808.23,798.39zm11889.88 2768.66l515.38 0 306.34 -1767.83 -515.38 0 -306.34 1767.83zm-7255.61 -752.3c307.32,-709.58 98.5,-1383.36 -498.78,-1625.66 -597.27,-242.31 -1323.93,62.06 -1606.27,762.11 -282.34,700.05 -23.4,1467.21 585.14,1614.21 608.55,147 1212.58,-41.08 1519.9,-750.66zm1642.22 -1683.73c-603.23,-112.34 -1020.73,-3.65 -1047.68,664.97 -82.07,3.9 -167.37,-1.89 -249.44,2.02l-73.9 422.69c75.45,5.13 155.83,1.98 231.28,7.11l-220.23 1332.95 522.97 13.23c74.69,-446.89 124.83,-895.42 199.53,-1342.31 139.09,1.29 278.18,2.58 417.27,3.87 21.89,-145.53 43.79,-291.06 65.68,-436.59 -135.23,-5.15 -267.49,0.55 -402.72,-4.6 4.79,-223.88 97.9,-356.11 445.96,-286.23 37.09,-125.7 74.18,-251.39 111.27,-377.09zm2034.66 626.51c-449.44,71.86 -822.31,376.99 -804.71,1160.66 -2.07,597.79 749.78,871.14 1485.37,552.44 -14.46,-137.95 -28.93,-275.9 -43.39,-413.85 -532.91,207.74 -937.06,182.9 -948.98,-214.58 379.74,-2.12 759.47,-4.25 1139.2,-6.38 186.72,-810.34 -201.91,-1157.61 -827.5,-1078.28zm2325.63 47.17c-652.46,-100.04 -1113.18,29.36 -1210.92,593.09 -65.55,390.45 -131.1,780.91 -196.65,1171.36 169.46,1.51 338.93,3.01 508.4,4.51 60.36,-352.22 120.72,-704.45 181.08,-1056.67 41.34,-256.83 266.54,-312.86 587.27,-264.56 43.61,-149.24 87.22,-298.48 130.83,-447.72zm139.65 -7.78c-29.59,143.18 -59.18,286.37 -88.78,429.55 79.86,2.07 159.72,4.15 239.58,6.22 -43.16,273.25 -78.72,498.27 -121.88,771.52 -88.47,559.05 330.7,642.69 875.93,557.73 16.37,-142.95 32.75,-285.91 49.12,-428.86 -305.79,79.39 -454.24,11.15 -405.07,-242.51 33.54,-220.29 67.08,-440.59 100.62,-660.88 151.52,1.16 303.05,2.31 454.58,3.47 24.89,-146.65 48.74,-287.2 73.63,-433.85 -147.96,2.23 -294.88,-1.63 -442.84,0.6 22.8,-152.88 45.59,-305.75 68.39,-458.63 -130.53,-0.45 -261.05,-0.9 -391.58,-1.34 -63.72,-2.38 -108.29,18.65 -119.35,77.78 -20.88,123.22 -41.76,246.45 -62.64,369.68 -76.57,3.17 -153.15,6.35 -229.72,9.52zm-3183.97 -665.91c-603.23,-112.34 -1020.73,-3.65 -1047.68,664.97 -82.07,3.9 -167.37,-1.89 -249.44,2.02l-73.9 422.69c75.45,5.13 155.83,1.98 231.28,7.11l-220.23 1332.95 522.97 13.23c74.69,-446.89 124.83,-895.42 199.53,-1342.31 139.09,1.29 278.18,2.58 417.27,3.87 21.89,-145.53 43.79,-291.06 65.68,-436.59 -135.23,-5.15 -267.49,0.55 -402.72,-4.6 4.79,-223.88 97.9,-356.11 445.96,-286.23 37.09,-125.7 74.18,-251.39 111.27,-377.09zm-4913.4 3450.3c110.71,0 201.93,-31 271.89,-115.13l-103.62 -101.85c-44.28,50.49 -95.65,71.74 -151.44,71.74 -94.76,0 -151.45,-55.79 -151.45,-139.04 0,-122.22 79.71,-215.21 200.16,-215.21 61.99,0 107.16,25.68 136.39,72.62l126.65 -100.96c-44.28,-75.28 -137.27,-116.91 -251.52,-116.91 -230.26,0 -388.79,156.76 -388.79,371.97 0,162.07 121.33,272.78 311.74,272.78zm-919.87 -124.92c142.05,-1040.21 284.09,-2080.42 426.14,-3120.63 40.7,-198.05 -144.79,-317.54 -367.34,-317.16 -736.45,-32.78 -1374.77,-38.99 -2111.23,-71.76 -249.16,-19.65 -389.97,44.96 -441.45,240.44 -30.6,139.85 -61.2,279.72 -91.79,419.58 -41.55,141.06 -25.74,181.14 -183.56,170.46 -340.91,-17.49 -681.82,-34.97 -1022.73,-52.45 -185.29,3.93 -203.86,286.02 -32.78,308.13 281.91,26.22 586.39,29.88 868.29,56.1 140.25,40.73 125.14,282.56 -42.24,271.69 -511.37,-26.22 -1022.73,-52.45 -1534.1,-78.67 -181.34,-4.98 -214.16,265.91 -65.55,288.47 504.81,30.59 1009.61,61.19 1514.43,91.78 159.95,24.94 136.45,287.8 -26.22,295.02 -360.58,-19.66 -721.16,-39.34 -1081.74,-59 -152.44,-11.93 -193.78,276.66 -28.46,289.87 373.69,21.85 712.33,41.65 1086.01,63.51 160.62,2.59 143.16,299.21 -34.83,289.11 -187.94,-13.11 -375.87,-26.23 -563.81,-39.33 -192.87,-19.93 -294.05,279.79 -78.97,302.77 185.76,17.48 372.08,25.87 557.84,43.35 186.59,20.28 193.67,58.36 150.5,191.46 -85.45,291.25 -21.78,482.67 236.01,544.15 812.94,48.07 1625.88,96.16 2438.83,144.23 223.6,18.65 381.99,-50.79 428.74,-271.11zm-1802.71 -777.81c33.66,-12.27 267.98,-299.81 322.43,-365l115.82 -129.3c90.38,108.81 261.78,608.41 343.52,706.95l333.3 -151.06 -331.41 -723.31 665.68 -4.76c-37.9,-62.31 -682.51,-581.59 -812.38,-697.32l-455.58 -384.3c-57.61,-47.67 -123.11,-111.49 -182.01,-147.84l0.61 1895.95zm14692.85 902.73c181.55,0 298.46,-87.68 298.46,-220.52 0,-191.3 -302,-142.59 -301.11,-227.61 0,-33.66 38.96,-60.22 111.59,-60.22 61.11,0 121.33,15.94 170.04,46.94l63.77 -130.18c-55.79,-34.54 -135.5,-53.14 -223.18,-53.14 -183.33,0 -297.57,87.68 -297.57,221.41 0,194.84 301.11,148.79 301.11,232.04 0,33.66 -38.96,54.91 -106.28,54.91 -70.85,0 -143.48,-21.26 -206.35,-61.11l-69.08 131.07c55.79,38.08 152.33,66.42 258.61,66.42zm-531.39 -12.4l175.36 0 123.99 -619.94 -175.36 0 -123.99 619.94zm-224.95 0l174.47 0 -149.67 -619.94 -172.7 0 -397.65 619.94 185.1 0 71.74 -120.45 263.92 0 24.8 120.45zm-211.67 -249.75l118.68 -201.04 41.62 201.04 -160.3 0zm-410.93 -370.19l-281.63 358.68 -145.25 -358.68 -142.59 0 -123.99 619.94 161.19 0 65.54 -326.8 112.48 265.69 77.05 0 206.35 -265.69 -63.77 326.8 162.07 0 122.22 -619.94 -149.67 0zm-964.46 135.5l27.45 -135.5 -485.33 0 -123.99 619.94 496.84 0 28.34 -135.5 -325.03 0 22.14 -113.36 276.32 0 25.68 -131.08 -275.43 0 20.37 -104.51 312.63 0zm-1122.11 484.45l471.16 0 28.34 -139.04 -295.8 0 95.65 -480.9 -175.36 0 -123.99 619.94zm-224.95 0l174.47 0 -149.67 -619.94 -172.7 0 -397.65 619.94 185.1 0 71.74 -120.45 263.92 0 24.8 120.45zm-211.67 -249.75l118.68 -201.04 41.62 201.04 -160.3 0zm-332.11 -370.19l-253.29 402.96 -88.56 -402.96 -179.78 0 140.82 619.94 172.7 0 388.79 -619.94 -180.67 0zm-1053.91 619.94l174.47 0 -149.67 -619.94 -172.7 0 -397.65 619.94 185.1 0 71.74 -120.45 263.92 0 24.8 120.45zm-211.67 -249.75l118.68 -201.04 41.62 201.04 -160.3 0zm-276.31 -172.7c0,-123.99 -91.22,-197.5 -249.75,-197.5l-264.81 0 -123.99 619.94 175.36 0 32.77 -164.73 88.56 0 92.11 164.73 183.33 0 -105.39 -185.98c108.05,-37.2 171.82,-122.22 171.82,-236.47zm-177.13 16.83c0,68.2 -45.17,105.39 -122.22,105.39l-104.51 0 37.2 -181.56 92.1 0c60.23,0 97.42,23.91 97.42,76.16zm-719.14 -214.32l-262.15 0 -123.99 619.94 175.36 0 31.88 -162.07 123.99 0c186.87,0 306.43,-101.85 306.43,-258.61 0,-125.76 -90.34,-199.27 -251.52,-199.27zm-46.94 319.71l-104.51 0 36.31 -181.56 92.11 0c61.11,0 97.42,23.91 97.42,76.16 0,68.2 -44.28,105.39 -121.33,105.39zm-490.64 -319.71l-281.63 358.68 -145.25 -358.68 -142.59 0 -123.99 619.94 161.19 0 65.54 -326.8 112.48 265.69 77.05 0 206.35 -265.69 -63.77 326.8 162.07 0 122.22 -619.94 -149.67 0zm-1107.94 632.34c227.61,0 387.02,-156.76 387.02,-371.97 0,-160.3 -117.79,-272.78 -308.2,-272.78 -227.61,0 -387.02,156.76 -387.02,371.97 0,160.3 117.79,272.78 308.2,272.78zm15.06 -145.25c-92.99,0 -146.13,-55.79 -146.13,-138.16 0,-116.9 73.51,-216.1 194.84,-216.1 92.99,0 146.13,55.79 146.13,138.16 0,116.9 -73.51,216.1 -194.84,216.1zm-651.83 145.25c110.71,0 201.93,-31 271.89,-115.13l-103.62 -101.85c-44.28,50.49 -95.65,71.74 -151.44,71.74 -94.76,0 -151.45,-55.79 -151.45,-139.04 0,-122.22 79.71,-215.21 200.16,-215.21 61.99,0 107.16,25.68 136.39,72.62l126.65 -100.96c-44.28,-75.28 -137.27,-116.91 -251.52,-116.91 -230.26,0 -388.79,156.76 -388.79,371.97 0,162.07 121.33,272.78 311.74,272.78zm-820.98 -12.4l174.47 0 -149.67 -619.94 -172.7 0 -397.65 619.94 185.1 0 71.74 -120.45 263.92 0 24.8 120.45zm-211.67 -249.75l118.68 -201.04 41.62 201.04 -160.3 0zm-982.17 249.75l317.06 0c227.61,0 387.02,-139.93 387.02,-359.57 0,-160.3 -117.79,-260.37 -310.86,-260.37l-269.23 0 -123.99 619.94zm203.7 -139.93l67.31 -340.08 102.74 0c100.96,0 153.21,48.71 153.21,131.07 0,118.67 -73.51,209.01 -204.58,209.01l-118.68 0zm-428.65 139.93l174.47 0 -149.67 -619.94 -172.7 0 -397.65 619.94 185.1 0 71.74 -120.45 263.92 0 24.8 120.45zm-211.67 -249.75l118.68 -201.04 41.62 201.04 -160.3 0zm5111.24 -2155.24c252.76,-28.3 389.67,51.42 375.89,322.98 -231.82,-0.46 -463.64,-0.92 -695.46,-1.39 43.41,-124.16 123.68,-292.86 319.57,-321.59zm-5336.79 -39.71c159.59,-403.66 587.65,-602.09 904.72,-467.79 317.07,134.29 403.08,550.46 243.49,954.12 -159.59,403.66 -514.92,628.5 -863.07,487.73 -348.15,-140.77 -444.73,-570.4 -285.14,-974.06zm10426.18 531.1l-524.15 -846.07 595.35 -2.12 297.32 477.07 533.25 -580.56 612.81 -10.75 -890.18 984.8 560.57 902.93 -599.62 0 -328.27 -542.7 -487.67 542.7 -624.29 0 854.88 -925.3z"/>
 </g>
</svg>
